HIERARCHY
ROOT hip
{
	OFFSET 0.000000 0.000000 0.000000 
	CHANNELS 6 Xposition Yposition Zposition Xrotation Zrotation Yrotation
	JOINT abdomen
	{
		OFFSET 0.000000 3.402643 0.000000 
		CHANNELS 3 Xrotation Zrotation Yrotation
		JOINT chest
		{
			OFFSET 0.000000 8.438565 -0.680529 
			CHANNELS 3 Xrotation Zrotation Yrotation
			JOINT neck
			{
				OFFSET 0.000000 10.207942 -0.272212 
				CHANNELS 3 Xrotation Zrotation Yrotation
				JOINT head
				{
					OFFSET 0.000000 3.130431 0.000000 
					CHANNELS 3 Xrotation Zrotation Yrotation
					End Site
					{
						OFFSET 0.000000 3.130435 0.000000 
					}
				}
			}
			JOINT lCollar
			{
				OFFSET 3.470700 6.669187 -0.816635 
				CHANNELS 3 Yrotation Zrotation Xrotation
				JOINT lShldr
				{
					OFFSET 3.198488 0.000000 0.000000 
					CHANNELS 3 Zrotation Yrotation Xrotation
					JOINT lForeArm
					{
						OFFSET 10.139888 0.000000 0.000000 
						CHANNELS 3 Yrotation Zrotation Xrotation
						JOINT lHand
						{
							OFFSET 8.370511 0.000000 0.000000 
							CHANNELS 3 Zrotation Yrotation Xrotation
							End Site
							{
								OFFSET 4.083176 0.000000 0.000000 
							}
						}
					}
				}
			}
			JOINT rCollar
			{
				OFFSET -3.470700 6.669187 -0.816635 
				CHANNELS 3 Yrotation Zrotation Xrotation
				JOINT rShldr
				{
					OFFSET -3.198488 0.000000 0.000000 
					CHANNELS 3 Zrotation Yrotation Xrotation
					JOINT rForeArm
					{
						OFFSET -10.139888 0.000000 0.000000 
						CHANNELS 3 Yrotation Zrotation Xrotation
						JOINT rHand
						{
							OFFSET -8.370511 0.000000 0.000000 
							CHANNELS 3 Zrotation Yrotation Xrotation
							End Site
							{
								OFFSET -4.083176 0.000000 0.000000 
							}
						}
					}
				}
			}
		}
	}
	JOINT lThigh
	{
		OFFSET 5.308129 -1.633274 1.361059 
		CHANNELS 3 Xrotation Zrotation Yrotation
		JOINT lShin
		{
			OFFSET -2.041588 -20.007561 0.000000 
			CHANNELS 3 Xrotation Zrotation Yrotation
			JOINT lFoot
			{
				OFFSET 0.000000 -19.190928 -1.224953 
				CHANNELS 3 Xrotation Yrotation Zrotation
				End Site
				{
					OFFSET 0.000000 -2.449906 4.627600 
				}
			}
		}
	}
	JOINT rThigh
	{
		OFFSET -5.308129 -1.633274 1.361059 
		CHANNELS 3 Xrotation Zrotation Yrotation
		JOINT rShin
		{
			OFFSET 2.041588 -20.007561 0.000000 
			CHANNELS 3 Xrotation Zrotation Yrotation
			JOINT rFoot
			{
				OFFSET 0.000000 -19.190928 -1.224953 
				CHANNELS 3 Xrotation Yrotation Zrotation
				End Site
				{
					OFFSET 0.000000 -2.449906 4.627600 
				}
			}
		}
	}
}
MOTION
Frames: 17
Frame Time: 0.033333
-51.458927 49.633614 46.341339 0.209073 -6.058978 -20.255392 0.000000 0.000000 0.000000 7.595297 -0.869109 -0.488373 21.263651 0.847462 -9.551749 21.256130 9.567519 -9.111575 -6.839832 -0.490952 7.417449 -68.502518 10.622985 1.442533 -42.276234 -3.895615 18.614786 3.737201 3.434673 -3.488650 5.013399 5.855800 7.266845 55.999691 -14.616719 2.231985 43.489883 2.980222 12.863368 -5.756811 -3.774993 -3.490116 -9.939527 9.128891 4.513714 15.277534 -4.361139 27.726637 -3.875566 -0.006272 0.283043 -4.150138 -9.520226 -4.508252 4.714213 5.955600 21.399242 2.027410 0.074783 3.543794 
-51.476067 49.654896 45.999973 0.566023 -5.628706 -20.228758 0.000000 0.000000 0.000000 7.781593 -0.956997 -0.488376 21.591658 1.249482 -10.197761 20.952824 9.143502 -9.466413 -7.192530 0.001256 7.596712 -68.556915 8.691264 1.909638 -43.400852 -3.706824 18.997465 4.422942 2.941373 -3.510116 5.058283 6.623776 7.413047 54.816952 -14.781632 1.836009 43.283264 2.925335 13.083135 -5.870187 -3.684601 -3.492765 -10.203030 9.001834 4.376726 14.104477 -4.496213 27.530468 -3.017256 -0.004458 0.662818 -3.601851 -10.334828 -4.760200 3.892871 5.505421 20.174351 3.148053 0.188590 6.163527 
-51.527409 49.705471 45.670086 0.729191 -5.367317 -20.092167 0.000000 0.000000 0.000000 8.201495 -0.917933 -0.507904 21.908991 1.689165 -10.649064 20.218527 8.751922 -9.702980 -7.249244 0.426349 7.994320 -68.300964 6.276174 2.616935 -44.243645 -3.680078 19.260107 4.869449 2.530057 -3.525536 4.815361 7.423632 7.759229 53.492805 -14.603599 2.043725 42.957977 3.129804 12.698381 -5.969612 -3.652797 -3.500389 -9.969839 9.090878 4.445770 12.605648 -4.728909 26.690924 -2.029319 -0.006993 1.122324 -2.734205 -11.022894 -5.113634 3.169944 5.036060 17.753351 4.636053 0.371715 8.721177 
-51.632641 49.753479 45.327770 0.811486 -5.176064 -19.762451 0.000000 0.000000 0.000000 8.640319 -0.800746 -0.537193 22.197123 1.965378 -10.973327 19.798935 8.763421 -9.999865 -7.360835 0.574461 8.409639 -67.912895 3.790850 2.790711 -44.814430 -3.467083 19.859411 5.001532 2.146635 -3.535099 4.558769 8.076195 8.146862 52.673721 -14.502124 2.282555 42.953926 3.317164 12.204731 -5.970800 -3.633416 -3.502494 -9.576641 9.273538 4.602867 10.959668 -4.963321 25.282553 -0.908946 0.003925 1.520543 -2.217015 -11.598547 -5.399705 3.627044 4.557094 16.010279 4.967310 0.456250 10.052582 
-51.769794 49.812141 44.982273 0.733340 -5.048286 -19.434645 0.000000 0.000000 0.000000 9.080255 -0.624949 -0.732485 22.649179 2.069664 -11.139916 19.670399 8.731679 -10.107488 -7.438633 0.675944 8.835087 -67.564819 1.650259 2.963456 -45.088387 -3.302928 20.188309 5.265122 2.154064 -3.535818 4.520024 8.275443 8.523637 53.291508 -14.545793 1.515620 42.979397 2.887307 13.052991 -5.320328 -3.726013 -3.491720 -8.923646 9.343128 4.717928 8.971169 -5.094332 24.572515 0.013264 -0.025660 1.995513 -1.631091 -12.154115 -5.694819 4.585384 4.088510 14.454796 5.048286 0.530667 11.141135 
-51.930859 49.792889 44.623623 0.521529 -4.490814 -18.918150 0.000000 0.000000 0.000000 9.425886 -0.722560 -0.937672 22.867777 2.048551 -11.413525 19.768673 8.281059 -10.046266 -7.644234 0.662307 9.140968 -67.380989 -0.297562 2.870135 -45.567581 -3.160660 20.102554 5.486697 2.207636 -3.533608 4.428878 8.204928 8.846580 53.802017 -14.700471 1.320921 43.293144 2.722741 13.278539 -4.799723 -3.760678 -3.499802 -8.657573 9.027738 4.527941 7.796075 -5.178633 23.457216 0.818882 0.033416 2.158126 -0.234652 -13.131335 -6.454058 4.048989 3.893658 15.214062 4.335856 0.485753 12.132120 
-52.196434 49.720119 44.160217 0.845384 -4.220927 -18.989328 0.000000 0.000000 0.000000 9.411073 -0.673794 -0.576247 23.221855 2.080834 -10.915460 18.555132 8.434149 -10.079478 -7.567568 0.863841 9.133908 -67.287880 -2.133792 2.642873 -45.767727 -3.004371 20.029362 5.577343 2.008772 -3.550239 4.884718 8.488336 8.805466 53.945084 -15.230081 1.750013 43.955811 2.814706 13.139951 -5.039143 -3.844348 -3.487186 -9.605192 9.497173 4.696247 8.336021 -5.369921 22.092512 1.267226 0.021350 1.775963 -1.914613 -13.602605 -6.201020 8.550698 3.710628 17.366724 2.049947 0.230252 11.934494 
-52.525230 49.671646 43.738834 0.990605 -3.945050 -18.933662 0.000000 0.000000 0.000000 9.477270 -0.615217 -0.429768 23.257570 1.998113 -10.367557 18.068659 8.383443 -9.801938 -7.234160 1.046332 9.219234 -67.385948 -3.921075 2.355320 -45.534866 -2.797207 20.428417 5.510134 1.376613 -3.565187 5.066869 8.405241 8.870226 54.607452 -15.101504 2.066202 44.103828 2.861215 13.835855 -5.083183 -3.916121 -3.487939 -10.097006 9.803921 4.702506 8.071754 -5.320175 21.640568 1.949861 0.066976 1.487327 -3.222403 -13.931200 -5.990833 12.647582 3.360012 18.254208 0.071781 0.015337 11.393282 
-52.899231 49.642830 43.334881 0.920406 -3.499883 -18.561716 0.000000 0.000000 0.000000 9.565945 -0.673807 -0.459068 23.418915 1.913246 -10.103054 17.324682 7.582286 -9.457224 -7.159269 0.695135 9.277037 -67.124031 -4.883556 2.084667 -45.706627 -2.682164 20.150703 5.630905 1.168964 -3.574001 5.113022 8.353006 8.956092 55.063370 -15.030653 2.406078 44.028206 2.935377 14.394156 -4.595024 -3.600280 -3.506095 -9.907879 9.741308 4.529818 6.742237 -5.178909 21.342997 2.977061 0.053262 1.332134 -3.183345 -14.225291 -5.965005 14.220278 2.930687 18.370329 -1.413161 -0.123917 11.122651 
-53.356064 49.585449 42.900364 0.611197 -2.969961 -18.140654 0.000000 0.000000 0.000000 9.950762 -0.751895 -0.712957 23.140451 1.338023 -9.699841 17.021881 7.514154 -9.032067 -6.647201 -0.342709 9.564483 -66.118706 -5.780739 1.970652 -46.412445 -2.627470 19.821035 5.529399 1.378768 -3.574434 4.771918 7.283419 9.342423 56.463722 -13.958931 2.612506 43.815411 2.967800 15.224695 -4.420035 -3.735842 -3.505271 -9.724641 9.782939 4.561783 5.729919 -5.201617 21.048512 3.578783 0.064576 1.095712 -2.528830 -14.435171 -6.051024 14.633330 2.617977 18.362654 -3.098576 -0.281119 10.834550 
-53.867149 49.505753 42.391594 0.623353 -2.616197 -17.577587 0.000000 0.000000 0.000000 10.037427 -0.644480 -0.722720 23.005268 1.003136 -8.995486 16.438389 8.032336 -8.718041 -6.551049 -0.623889 9.653186 -65.778885 -6.301222 1.975629 -46.520363 -2.611041 19.697554 5.335616 1.198294 -3.565612 4.789110 6.812348 9.441051 57.471310 -13.595207 2.748052 43.789982 3.030475 14.934630 -4.282174 -3.764884 -3.491664 -10.076664 10.017848 4.511420 4.812460 -5.117698 21.588116 4.242675 0.052467 0.954982 -2.509415 -14.180990 -5.793808 15.513620 2.354193 18.393753 -4.938343 -0.429978 10.196924 
-54.414280 49.416767 41.859509 0.372407 -2.148329 -16.975498 0.000000 0.000000 0.000000 10.201954 -0.683562 -0.556718 23.127710 0.840477 -8.409011 15.413545 8.105926 -8.433582 -6.616580 -0.710508 9.787580 -65.644768 -6.223798 2.277205 -46.824383 -2.672365 19.940096 5.962913 1.024255 -3.584590 4.963881 6.848973 9.604568 57.804962 -13.650234 3.185506 43.828560 3.134022 15.256223 -4.317225 -3.973378 -3.492251 -9.566661 9.966364 4.344800 2.479022 -4.867666 22.432318 5.884777 0.076648 1.049117 -2.206560 -13.987251 -5.712704 16.017342 2.179276 17.934387 -6.855133 -0.546589 9.530919 
-55.056965 49.297684 41.299763 -0.286246 -1.659029 -16.305941 0.000000 0.000000 0.000000 10.670935 -0.839816 -0.468843 23.381279 0.561318 -7.685847 14.679364 7.837557 -7.816508 -6.603894 -0.964775 10.194961 -65.625931 -6.064182 2.133153 -46.955833 -2.637580 19.993519 6.261266 0.946749 -3.599583 5.108167 6.673503 10.037866 58.030140 -13.328470 3.855254 43.940659 3.293764 15.841649 -4.372200 -4.026269 -3.494656 -8.745487 9.994200 4.329605 0.696017 -4.679270 22.012199 7.390546 0.028757 0.487985 -0.752664 -13.639469 -5.986279 14.527600 2.266895 15.595021 -8.633167 -0.649322 9.241874 
-55.722919 49.170380 40.718105 -1.472385 -0.904553 -15.236438 0.000000 0.000000 0.000000 11.556688 -1.201094 -0.654562 23.586193 0.290642 -7.226618 14.748583 7.463913 -7.011895 -6.661981 -1.403114 10.940389 -65.483360 -6.070875 1.956112 -46.557049 -2.690379 20.052671 6.034645 1.127081 -3.582713 4.955700 6.258873 10.863229 58.312584 -12.527545 4.416684 43.962543 3.411419 16.423182 -4.454532 -3.963024 -3.494080 -7.621419 9.572333 4.036215 -0.962474 -4.408340 20.824022 8.856233 -0.038394 -0.366383 1.824652 -13.538453 -6.902814 11.520140 2.664409 11.855590 -10.049228 -0.783812 9.041011 
-56.440617 49.001991 39.972721 -1.915337 -0.454193 -14.316875 0.000000 0.000000 0.000000 11.893270 -1.279269 -0.380982 24.149027 0.746638 -6.816970 13.886383 6.201709 -6.394966 -7.315810 -0.868987 11.274051 -66.003891 -5.559858 1.812859 -45.644230 -2.791527 19.884653 5.905326 1.314633 -3.574588 5.424217 7.244671 11.135028 57.430302 -12.912313 4.899316 44.815693 3.691453 14.214705 -4.998692 -4.165184 -3.480464 -7.818714 9.789901 3.826752 -1.511182 -4.117080 19.376585 9.719301 -0.093310 -0.997925 0.722330 -13.095113 -6.803234 13.655769 2.849320 7.940473 -11.802382 -0.861783 8.371006 
-57.187237 48.777485 39.013638 -1.473650 -0.322475 -13.779568 0.000000 0.000000 0.000000 12.050947 -0.976563 -0.009931 24.128809 1.048992 -5.957996 12.960341 5.285494 -5.795439 -7.507761 -0.326843 11.474222 -66.474403 -5.122037 1.349763 -45.188160 -2.731827 19.734629 5.490897 1.679200 -3.555636 5.814711 8.088656 11.231914 55.914112 -12.623381 6.171621 46.270626 4.015808 13.331679 -5.020536 -4.863584 -3.472502 -9.430062 10.737594 3.872327 -1.325896 -3.941276 17.962799 10.866771 -0.188954 -1.815916 -3.309340 -12.101648 -5.541893 18.999325 2.802427 5.455912 -13.554824 -0.868896 7.475390 
-57.907127 48.527889 38.021011 -1.299849 -0.332987 -13.037339 0.000000 0.000000 0.000000 12.703867 -0.507811 0.136713 24.063082 1.225822 -4.981415 12.294608 5.057365 -5.196036 -7.585817 0.247954 12.133961 -67.032005 -5.043718 0.770421 -44.824764 -2.560042 19.914682 5.057437 1.885223 -3.537610 5.772546 8.788186 11.786723 54.791470 -11.596391 6.747222 47.645924 3.965518 14.234239 -5.004516 -4.978610 -3.453630 -10.806222 11.606214 3.822105 -1.152951 -3.583739 16.146511 11.885025 -0.276017 -2.544720 -6.853171 -10.962251 -4.566200 23.570852 2.587543 2.807735 -14.585713 -0.860164 6.917405 
